<svg id="visual" viewBox="0 0 1200 450" width="1200" height="450" xmlns="http://www.w3.org/2000/svg" xmlns:xlink="http://www.w3.org/1999/xlink" version="1.1"><path d="M0 109L13.3 106C26.7 103 53.3 97 80 85.8C106.7 74.7 133.3 58.3 160 51.7C186.7 45 213.3 48 240 49.5C266.7 51 293.3 51 320 59.2C346.7 67.3 373.3 83.7 400 93.3C426.7 103 453.3 106 480 103C506.7 100 533.3 91 560 83.5C586.7 76 613.3 70 640 72.3C666.7 74.7 693.3 85.3 720 87.7C746.7 90 773.3 84 800 83.2C826.7 82.3 853.3 86.7 880 82.2C906.7 77.7 933.3 64.3 960 64.3C986.7 64.3 1013.3 77.7 1040 82.8C1066.7 88 1093.3 85 1120 80.5C1146.7 76 1173.3 70 1186.7 67L1200 64L1200 0L1186.7 0C1173.3 0 1146.7 0 1120 0C1093.3 0 1066.7 0 1040 0C1013.3 0 986.7 0 960 0C933.3 0 906.7 0 880 0C853.3 0 826.7 0 800 0C773.3 0 746.7 0 720 0C693.3 0 666.7 0 640 0C613.3 0 586.7 0 560 0C533.3 0 506.7 0 480 0C453.3 0 426.7 0 400 0C373.3 0 346.7 0 320 0C293.3 0 266.7 0 240 0C213.3 0 186.7 0 160 0C133.3 0 106.7 0 80 0C53.3 0 26.7 0 13.3 0L0 0Z" fill="#ffffff"></path><path d="M0 276L13.3 258C26.7 240 53.3 204 80 202.5C106.7 201 133.3 234 160 241.5C186.7 249 213.3 231 240 211.5C266.7 192 293.3 171 320 168.7C346.7 166.3 373.3 182.7 400 205.2C426.7 227.7 453.3 256.3 480 253.3C506.7 250.3 533.3 215.7 560 208.2C586.7 200.7 613.3 220.3 640 218.2C666.7 216 693.3 192 720 201.7C746.7 211.3 773.3 254.7 800 269.7C826.7 284.7 853.3 271.3 880 247.3C906.7 223.3 933.3 188.7 960 177.3C986.7 166 1013.3 178 1040 197.5C1066.7 217 1093.3 244 1120 249.3C1146.7 254.7 1173.3 238.3 1186.7 230.2L1200 222L1200 62L1186.7 65C1173.3 68 1146.7 74 1120 78.5C1093.3 83 1066.7 86 1040 80.8C1013.3 75.7 986.7 62.3 960 62.3C933.3 62.3 906.7 75.7 880 80.2C853.3 84.7 826.7 80.3 800 81.2C773.3 82 746.7 88 720 85.7C693.3 83.3 666.7 72.7 640 70.3C613.3 68 586.7 74 560 81.5C533.3 89 506.7 98 480 101C453.3 104 426.7 101 400 91.3C373.3 81.7 346.7 65.3 320 57.2C293.3 49 266.7 49 240 47.5C213.3 46 186.7 43 160 49.7C133.3 56.3 106.7 72.7 80 83.8C53.3 95 26.7 101 13.3 104L0 107Z" fill="#8f77f5"></path><path d="M0 357L13.3 357.7C26.7 358.3 53.3 359.7 80 358.8C106.7 358 133.3 355 160 357.3C186.7 359.7 213.3 367.3 240 363.7C266.7 360 293.3 345 320 338.2C346.7 331.3 373.3 332.7 400 335.7C426.7 338.7 453.3 343.3 480 349.3C506.7 355.3 533.3 362.7 560 357.3C586.7 352 613.3 334 640 326.5C666.7 319 693.3 322 720 337C746.7 352 773.3 379 800 383.5C826.7 388 853.3 370 880 353.5C906.7 337 933.3 322 960 325.8C986.7 329.7 1013.3 352.3 1040 362.8C1066.7 373.3 1093.3 371.7 1120 361.2C1146.7 350.7 1173.3 331.3 1186.7 321.7L1200 312L1200 220L1186.7 228.2C1173.3 236.3 1146.7 252.7 1120 247.3C1093.3 242 1066.7 215 1040 195.5C1013.3 176 986.7 164 960 175.3C933.3 186.7 906.7 221.3 880 245.3C853.3 269.3 826.7 282.7 800 267.7C773.3 252.7 746.7 209.3 720 199.7C693.3 190 666.7 214 640 216.2C613.3 218.3 586.7 198.7 560 206.2C533.3 213.7 506.7 248.3 480 251.3C453.3 254.3 426.7 225.7 400 203.2C373.3 180.7 346.7 164.3 320 166.7C293.3 169 266.7 190 240 209.5C213.3 229 186.7 247 160 239.5C133.3 232 106.7 199 80 200.5C53.3 202 26.7 238 13.3 256L0 274Z" fill="#8f77f5"></path><path d="M0 451L13.3 451C26.7 451 53.3 451 80 451C106.7 451 133.3 451 160 451C186.7 451 213.3 451 240 451C266.7 451 293.3 451 320 451C346.7 451 373.3 451 400 451C426.7 451 453.3 451 480 451C506.7 451 533.3 451 560 451C586.7 451 613.3 451 640 451C666.7 451 693.3 451 720 451C746.7 451 773.3 451 800 451C826.7 451 853.3 451 880 451C906.7 451 933.3 451 960 451C986.7 451 1013.3 451 1040 451C1066.7 451 1093.3 451 1120 451C1146.7 451 1173.3 451 1186.7 451L1200 451L1200 310L1186.7 319.7C1173.3 329.3 1146.7 348.7 1120 359.2C1093.3 369.7 1066.7 371.3 1040 360.8C1013.3 350.3 986.7 327.7 960 323.8C933.3 320 906.7 335 880 351.5C853.3 368 826.7 386 800 381.5C773.3 377 746.7 350 720 335C693.3 320 666.7 317 640 324.5C613.3 332 586.7 350 560 355.3C533.3 360.7 506.7 353.3 480 347.3C453.3 341.3 426.7 336.7 400 333.7C373.3 330.7 346.7 329.3 320 336.2C293.3 343 266.7 358 240 361.7C213.3 365.3 186.7 357.7 160 355.3C133.3 353 106.7 356 80 356.8C53.3 357.7 26.7 356.3 13.3 355.7L0 355Z" fill="#ffffff"></path></svg>