<svg id="visual" viewBox="0 0 1000 200" width="1000" height="200" xmlns="http://www.w3.org/2000/svg" xmlns:xlink="http://www.w3.org/1999/xlink" version="1.1"><rect x="0" y="0" width="1000" height="200" fill="#715DF2"></rect><path d="M0 130L143 129L286 118L429 134L571 114L714 131L857 114L1000 127L1000 201L857 201L714 201L571 201L429 201L286 201L143 201L0 201Z" fill="#6600ff"></path><path d="M0 132L143 127L286 148L429 136L571 145L714 135L857 122L1000 135L1000 201L857 201L714 201L571 201L429 201L286 201L143 201L0 201Z" fill="#5a06da"></path><path d="M0 145L143 149L286 158L429 149L571 164L714 138L857 137L1000 155L1000 201L857 201L714 201L571 201L429 201L286 201L143 201L0 201Z" fill="#4e0ab6"></path><path d="M0 157L143 165L286 159L429 176L571 156L714 158L857 171L1000 165L1000 201L857 201L714 201L571 201L429 201L286 201L143 201L0 201Z" fill="#420c94"></path><path d="M0 172L143 186L286 180L429 174L571 189L714 186L857 183L1000 188L1000 201L857 201L714 201L571 201L429 201L286 201L143 201L0 201Z" fill="#350c73"></path></svg>