<svg id="visual" viewBox="0 0 1000 300" width="1000" height="300" xmlns="http://www.w3.org/2000/svg" xmlns:xlink="http://www.w3.org/1999/xlink" version="1.1"><g stroke-width="1" stroke-linejoin="bevel"><path d="M534.6 93L541.6 0L472.4 0Z" fill="#004c54" stroke="#004c54"></path><path d="M472.4 0L436.4 76L534.6 93Z" fill="#57a629" stroke="#57a629"></path><path d="M527.6 214L632.7 111L534.6 93Z" fill="#012d3a" stroke="#012d3a"></path><path d="M534.6 93L632.7 111L541.6 0Z" fill="#004c54" stroke="#004c54"></path><path d="M436.4 76L527.6 214L534.6 93Z" fill="#2a9944" stroke="#2a9944"></path><path d="M293.3 0L333.3 93L436.4 76Z" fill="#007c5f" stroke="#007c5f"></path><path d="M436.4 76L415.4 216L527.6 214Z" fill="#2a9944" stroke="#2a9944"></path><path d="M363.3 183L415.4 216L436.4 76Z" fill="#005c5d" stroke="#005c5d"></path><path d="M632.7 111L701.7 0L541.6 0Z" fill="#57a629" stroke="#57a629"></path><path d="M333.3 93L363.3 183L436.4 76Z" fill="#004c54" stroke="#004c54"></path><path d="M472.4 0L293.3 0L436.4 76Z" fill="#005c5d" stroke="#005c5d"></path><path d="M333.3 93L196.2 179L363.3 183Z" fill="#007c5f" stroke="#007c5f"></path><path d="M527.6 214L704.7 209L632.7 111Z" fill="#2a9944" stroke="#2a9944"></path><path d="M632.7 111L767.8 83L701.7 0Z" fill="#003c48" stroke="#003c48"></path><path d="M415.4 216L473.4 300L527.6 214Z" fill="#005c5d" stroke="#005c5d"></path><path d="M527.6 214L566.6 300L704.7 209Z" fill="#007c5f" stroke="#007c5f"></path><path d="M360.3 300L473.4 300L415.4 216Z" fill="#00101c" stroke="#00101c"></path><path d="M473.4 300L566.6 300L527.6 214Z" fill="#003c48" stroke="#003c48"></path><path d="M704.7 209L767.8 83L632.7 111Z" fill="#012d3a" stroke="#012d3a"></path><path d="M293.3 0L231.2 74L333.3 93Z" fill="#2a9944" stroke="#2a9944"></path><path d="M363.3 183L360.3 300L415.4 216Z" fill="#007c5f" stroke="#007c5f"></path><path d="M767.8 83L781.8 0L701.7 0Z" fill="#006c62" stroke="#006c62"></path><path d="M233.2 300L360.3 300L363.3 183Z" fill="#003c48" stroke="#003c48"></path><path d="M293.3 0L205.2 0L231.2 74Z" fill="#57a629" stroke="#57a629"></path><path d="M696.7 300L768.8 217L704.7 209Z" fill="#012d3a" stroke="#012d3a"></path><path d="M704.7 209L768.8 217L767.8 83Z" fill="#003c48" stroke="#003c48"></path><path d="M897.9 72L893.9 0L781.8 0Z" fill="#2a9944" stroke="#2a9944"></path><path d="M566.6 300L696.7 300L704.7 209Z" fill="#006c62" stroke="#006c62"></path><path d="M135.1 130L196.2 179L231.2 74Z" fill="#00101c" stroke="#00101c"></path><path d="M231.2 74L196.2 179L333.3 93Z" fill="#2a9944" stroke="#2a9944"></path><path d="M196.2 179L233.2 300L363.3 183Z" fill="#004c54" stroke="#004c54"></path><path d="M696.7 300L782.8 300L768.8 217Z" fill="#00101c" stroke="#00101c"></path><path d="M897.9 72L781.8 0L767.8 83Z" fill="#00101c" stroke="#00101c"></path><path d="M205.2 0L135.1 130L231.2 74Z" fill="#012d3a" stroke="#012d3a"></path><path d="M196.2 179L138.1 202L233.2 300Z" fill="#007c5f" stroke="#007c5f"></path><path d="M897.9 72L767.8 83L896.9 174Z" fill="#006c62" stroke="#006c62"></path><path d="M896.9 174L767.8 83L768.8 217Z" fill="#006c62" stroke="#006c62"></path><path d="M135.1 130L138.1 202L196.2 179Z" fill="#007c5f" stroke="#007c5f"></path><path d="M900.9 300L896.9 174L768.8 217Z" fill="#003c48" stroke="#003c48"></path><path d="M205.2 0L86.1 0L135.1 130Z" fill="#003c48" stroke="#003c48"></path><path d="M0 213L85.1 300L138.1 202Z" fill="#008b55" stroke="#008b55"></path><path d="M782.8 300L900.9 300L768.8 217Z" fill="#003c48" stroke="#003c48"></path><path d="M1000 121L1000 0L897.9 72Z" fill="#041f2b" stroke="#041f2b"></path><path d="M0 213L138.1 202L135.1 130Z" fill="#005c5d" stroke="#005c5d"></path><path d="M138.1 202L85.1 300L233.2 300Z" fill="#2a9944" stroke="#2a9944"></path><path d="M1000 121L897.9 72L896.9 174Z" fill="#00101c" stroke="#00101c"></path><path d="M897.9 72L1000 0L893.9 0Z" fill="#008b55" stroke="#008b55"></path><path d="M1000 205L1000 121L896.9 174Z" fill="#003c48" stroke="#003c48"></path><path d="M86.1 0L0 77L135.1 130Z" fill="#006c62" stroke="#006c62"></path><path d="M86.1 0L0 0L0 77Z" fill="#008b55" stroke="#008b55"></path><path d="M900.9 300L1000 205L896.9 174Z" fill="#00101c" stroke="#00101c"></path><path d="M0 77L0 213L135.1 130Z" fill="#00101c" stroke="#00101c"></path><path d="M900.9 300L1000 300L1000 205Z" fill="#008b55" stroke="#008b55"></path><path d="M0 213L0 300L85.1 300Z" fill="#007c5f" stroke="#007c5f"></path></g></svg>